:SAMPLES-PER-SECOND 30
:FULLY-SPECIFIED
:DEGREES
21
root  83.432 38.7583 -1.37054 -37.5975 -85.8365 33.2148
RightUpLeg  -0.217613 -5.64143 -3.76181
RightLeg  15.0962 6.60635 0.485011
RightFoot  -14.626 -0.0710023 0.953034
RightToes  -1.74624e-010 0 -3.6325e-017
Spine  5.9208 1.46419 7.09719
Spine1  4.72801 3.16306 -5.1097
HEad  -14.3648 -4.11863 -8.49628
LeftShoulder1  -0.414445 4.58333 -32.2448
LeftArm  -1.56292 10.7215 -41.2388
LeftForeArm  23.9856 -14.1851 -6.65214
LeftHand  -0.0342321 6.30623 0.00606515
RightShoulder  -1.1368 -6.50185 31.3745
RightArm  18.4415 -0.281531 47.1322
RightForeArm  18.4839 8.8804 8.35774
RightHand  -0.144814 5.04373 -1.91385
LeftUpLeg  -4.11219 5.95214 2.55259
LeftLeg  15.8626 0.769452 0.554021
LeftFoot  -6.9462 0.1317 -2.38171
LeftToes  -3.96543e-010 8.93632e-011 -2.58531e-011
22
root  83.3105 38.5257 -1.35846 -21.8037 -84.8165 17.3387
RightUpLeg  -0.779679 -6.28693 -3.26526
RightLeg  17.1981 5.74285 0.874499
RightFoot  -15.7361 -0.074284 0.851601
RightToes  -1.74624e-010 0 -3.6325e-017
Spine  6.42971 1.1606 8.36087
Spine1  4.66127 2.87097 -4.43434
HEad  -14.0941 -3.67453 -9.26634
LeftShoulder1  -0.459183 4.67924 -32.9243
LeftArm  -1.50254 11.3129 -41.0253
LeftForeArm  24.7097 -13.6632 -6.89638
LeftHand  -0.0217315 4.44082 -0.45123
RightShoulder  -1.08763 -6.39413 31.0828
RightArm  19.6953 0.457048 47.2063
RightForeArm  17.6978 9.85105 8.37102
RightHand  -0.12704 3.70452 -1.85891
LeftUpLeg  -7.70585 4.0442 3.05518
LeftLeg  22.574 1.70583 1.11246
LeftFoot  -7.07455 0.198227 -4.1169
LeftToes  -3.96543e-010 8.93632e-011 -2.58531e-011
23
root  83.0878 38.3678 -1.33119 -12.8887 -83.3318 8.00043
RightUpLeg  -0.475901 -7.04936 -2.86425
RightLeg  18.6427 4.86743 0.880117
RightFoot  -16.3288 -0.0975621 0.289064
RightToes  -1.74624e-010 0 -3.6325e-017
Spine  6.41704 0.819931 9.27597
Spine1  5.61227 2.55928 -3.69197
HEad  -13.7305 -3.59446 -9.53195
LeftShoulder1  -0.480126 4.72328 -33.2246
LeftArm  -2.04546 12.1471 -41.3147
LeftForeArm  25.9573 -13.1457 -7.00935
LeftHand  -0.014697 3.8918 -0.046183
RightShoulder  -1.14996 -6.54413 31.2897
RightArm  20.049 2.02664 47.0783
RightForeArm  16.3999 9.90364 8.48462
RightHand  -0.216928 4.39139 -2.86323
LeftUpLeg  -10.7229 2.7771 3.40059
LeftLeg  28.6425 2.11788 1.57537
LeftFoot  -5.7552 0.26243 -4.71983
LeftToes  -3.96543e-010 8.93632e-011 -2.58531e-011
24
root  82.8181 38.31 -1.29427 -12.0024 -81.9445 6.77469
RightUpLeg  0.334254 -7.9475 -3.20922
RightLeg  19.1153 4.53707 0.941006
RightFoot  -16.7592 -0.0977851 0.330556
RightToes  -1.74624e-010 0 -3.6325e-017
Spine  6.74083 0.695362 9.36979
Spine1  6.00352 2.41029 -3.16058
HEad  -12.457 -3.79399 -9.08296
LeftShoulder1  -0.483607 4.72619 -33.4133
LeftArm  -2.84017 13.1258 -41.4954
LeftForeArm  27.1735 -11.9257 -7.4033
LeftHand  -0.0314686 5.82515 0.54004
RightShoulder  -1.16238 -6.57813 31.2781
RightArm  19.0757 3.24306 47.193
RightForeArm  16.029 9.85463 8.26883
RightHand  -0.196901 3.97088 -2.70848
LeftUpLeg  -13.3956 1.93881 2.94149
LeftLeg  33.1116 1.21964 1.19682
LeftFoot  -4.93397 0.258749 -4.09536
LeftToes  -3.96543e-010 8.93632e-011 -2.58531e-011
25
root  82.4588 38.3255 -1.25241 -13.6153 -81.31 8.75757
RightUpLeg  0.733358 -8.22464 -3.65612
RightLeg  18.9315 4.32747 0.827386
RightFoot  -17.0898 -0.100872 0.293438
RightToes  -1.74624e-010 0 -3.6325e-017
Spine  6.31461 0.835899 9.46992
Spine1  6.2479 2.61253 -3.68413
HEad  -11.0601 -4.37427 -8.7652
LeftShoulder1  -0.47809 4.71239 -33.4087
LeftArm  -2.31494 15.1413 -41.0551
LeftForeArm  28.7403 -11.9489 -7.50497
LeftHand  -0.0187643 6.47561 -0.609981
RightShoulder  -1.17462 -6.62063 31.1592
RightArm  18.4251 4.03515 47.7556
RightForeArm  15.6927 10.1773 7.98634
RightHand  -0.150589 3.70273 -2.17801
LeftUpLeg  -15.6415 1.8208 2.20484
LeftLeg  34.2351 -0.440259 0.035394
LeftFoot  -5.59844 0.28797 -5.06589
LeftToes  -3.96543e-010 8.93632e-011 -2.58531e-011
26
root  82.0641 38.3619 -1.15567 -14.0995 -80.9049 10.0435
RightUpLeg  0.965209 -8.72781 -4.07501
RightLeg  18.2167 4.5206 0.809717
RightFoot  -17.2601 -0.0968287 0.38691
RightToes  -1.74624e-010 0 -3.6325e-017
Spine  5.64157 1.2222 9.92747
Spine1  6.20347 3.05891 -4.41323
HEad  -9.71091 -5.42273 -8.25518
LeftShoulder1  -0.508777 4.78355 -33.6
LeftArm  -2.6794 16.7262 -40.6193
LeftForeArm  29.7216 -11.4672 -7.6364
LeftHand  0.0271796 8.9846 0.876792
RightShoulder  -1.19435 -6.67753 31.1086
RightArm  18.2685 4.50859 48.1019
RightForeArm  15.4531 10.9885 7.61908
RightHand  -0.0724704 3.83962 -1.18012
LeftUpLeg  -17.7049 1.90973 1.55157
LeftLeg  32.5792 -1.60582 -0.758317
LeftFoot  -5.80588 0.314153 -5.77434
LeftToes  -3.96543e-010 8.93632e-011 -2.58531e-011
27
root  81.6462 38.4479 -1.06423 -16.2787 -80.5364 13.0065
RightUpLeg  1.46875 -9.21201 -4.81411
RightLeg  17.0977 4.81925 0.846414
RightFoot  -17.1281 -0.0916033 0.479224
RightToes  -1.74624e-010 0 -3.6325e-017
Spine  5.208 1.44626 10.0172
Spine1  6.27198 3.37505 -5.44587
HEad  -9.06837 -6.79409 -7.6014
LeftShoulder1  -0.541525 4.85659 -33.8733
LeftArm  -3.52369 18.3802 -39.699
LeftForeArm  33.3066 -10.9839 -7.46751
LeftHand  0.0204141 3.02912 -1.7281
RightShoulder  -1.14376 -6.59734 30.4496
RightArm  19.2258 4.95142 49.0181
RightForeArm  13.2037 12.2659 7.34929
RightHand  -0.129552 4.13122 -1.83147
LeftUpLeg  -18.98 2.3001 0.705078
LeftLeg  28.6193 -1.66184 -0.665717
LeftFoot  -5.97582 0.335339 -6.38936
LeftToes  -3.96543e-010 8.93632e-011 -2.58531e-011
